<svg xmlns="http://www.w3.org/2000/svg" xmlns:xlink="http://www.w3.org/1999/xlink" width="512" zoomAndPan="magnify" viewBox="0 0 384 383.999986" height="512" preserveAspectRatio="xMidYMid meet" version="1.0"><defs><g/></defs><rect x="-38.4" width="460.8" fill="#ffffff" y="-38.399999" height="460.799983" fill-opacity="1"/><rect x="-38.4" width="460.8" fill="#fed405" y="-38.399999" height="460.799983" fill-opacity="1"/><g fill="#000000" fill-opacity="1"><g transform="translate(28.456583, 350.391915)"><g><path d="M 81.34375 -165.1875 L 115.375 -165.1875 L 115.375 -50.828125 C 115.375 -40.316406 113.046875 -31.03125 108.390625 -22.96875 C 103.742188 -14.914062 97.1875 -8.695312 88.71875 -4.3125 C 80.25 0.0703125 70.679688 2.265625 60.015625 2.265625 C 42.546875 2.265625 28.929688 -2.175781 19.171875 -11.0625 C 9.410156 -19.945312 4.53125 -32.519531 4.53125 -48.78125 L 38.796875 -48.78125 C 38.796875 -40.6875 40.5 -34.710938 43.90625 -30.859375 C 47.3125 -27.003906 52.679688 -25.078125 60.015625 -25.078125 C 66.515625 -25.078125 71.691406 -27.304688 75.546875 -31.765625 C 79.410156 -36.222656 81.34375 -42.578125 81.34375 -50.828125 Z M 81.34375 -165.1875 "/></g></g></g><g fill="#000000" fill-opacity="1"><g transform="translate(159.003451, 350.391915)"><g><path d="M 143.40625 -47.65625 L 165.640625 -165.1875 L 199.5625 -165.1875 L 162.90625 0 L 128.65625 0 L 101.765625 -110.5 L 74.875 0 L 40.609375 0 L 3.96875 -165.1875 L 37.890625 -165.1875 L 60.234375 -47.875 L 87.46875 -165.1875 L 116.28125 -165.1875 Z M 143.40625 -47.65625 "/></g></g></g></svg>